<svg width="296" height="734" viewBox="0 0 296 734" fill="none" xmlns="http://www.w3.org/2000/svg">
<path d="M213.5 -12.5C186 -14 120.5 4.29998 110.5 23.5C98 47.5 101 77 129 79.5C157 82 222.063 72.4001 256 90.5C289.937 108.6 291.58 159 227.5 159C203.5 159 143.5 142.5 129 139.5C127.531 139.196 36 117.5 18 185C3.6 239 81 262.5 121.5 267.5C171.5 275 180 319 121.5 332.5C62.1401 346.198 12.5 352.748 12.5 402.5C12.5 439 69.5 454.5 108.5 447.5C163 436.5 224.4 424.1 230 484.5C235.6 544.9 174.471 544.396 153.5 545.5C77.5 549.5 51.4126 640.073 163 623.5C264 608.5 286.5 669 259 689.5C229.499 711.492 113.298 656.758 63 683C28.5 701 17 725.167 17 733" stroke="#CCB999" stroke-opacity="0.66" stroke-width="25"/>
<path d="M215 -12.5C187.5 -14 124.5 -1.69999 114.5 17.5C102 41.5 105 71 133 73.5C161 76 226.063 66.4001 260 84.5C293.937 102.6 295.58 153 231.5 153C207.5 153 147.5 136.5 133 133.5C131.531 133.196 40 111.5 22 179C7.6 233 85 256.5 125.5 261.5C175.5 269 184 313 125.5 326.5C66.1401 340.198 16.5 346.748 16.5 396.5C16.5 433 73.5 448.5 112.5 441.5C167 430.5 228.4 418.1 234 478.5C239.6 538.9 178.471 538.396 157.5 539.5C81.5 543.5 55.4126 634.073 167 617.5C268 602.5 290.5 663 263 683.5C233.499 705.492 117.298 650.758 67 677C32.5 695 20.5 725.167 20.5 733" stroke="#CCB999" stroke-width="25"/>
</svg>
